<svg width="465" height="1006" viewBox="0 0 465 1006" fill="none" xmlns="http://www.w3.org/2000/svg">
<g clip-path="url(#clip0_93_2)">
<path d="M352.48 5.72784e-05L288.179 64.301L352.48 128.602L416.781 64.301L352.48 5.72784e-05Z" fill="#1FBBFE"/>
<mask id="mask0_93_2" style="mask-type:alpha" maskUnits="userSpaceOnUse" x="143" y="877" width="130" height="129">
<path d="M208.033 1005.92L272.334 941.617L208.033 877.316L143.732 941.617L208.033 1005.92Z" fill="#046792"/>
</mask>
<g mask="url(#mask0_93_2)">
<path d="M143.314 941.409H272.334V850.869H143.314V941.409Z" fill="#046792"/>
</g>
<mask id="mask1_93_2" style="mask-type:alpha" maskUnits="userSpaceOnUse" x="71" y="219" width="129" height="130">
<path d="M71.2996 284.069L135.601 348.37L199.902 284.069L135.601 219.768L71.2996 284.069Z" fill="#1FBBFE"/>
</mask>
<g mask="url(#mask1_93_2)">
<path d="M135.81 219.35V348.37H226.35V219.35H135.81Z" fill="#1FBBFE"/>
</g>
<mask id="mask2_93_2" style="mask-type:alpha" maskUnits="userSpaceOnUse" x="71" y="366" width="129" height="130">
<path d="M71.2996 431.197L135.601 495.498L199.902 431.197L135.601 366.896L71.2996 431.197Z" fill="#1FBBFE"/>
</mask>
<g mask="url(#mask2_93_2)">
<path d="M135.81 366.478V495.498H226.35V366.478H135.81Z" fill="#1FBBFE"/>
</g>
<mask id="mask3_93_2" style="mask-type:alpha" maskUnits="userSpaceOnUse" x="361" y="72" width="129" height="130">
<path d="M489.631 136.942L425.33 72.6406L361.029 136.942L425.33 201.243L489.631 136.942Z" fill="#1FBBFE"/>
</mask>
<g mask="url(#mask3_93_2)">
<path d="M425.121 201.661V72.6406H334.58V201.661H425.121Z" fill="#1FBBFE"/>
</g>
<mask id="mask4_93_2" style="mask-type:alpha" maskUnits="userSpaceOnUse" x="361" y="364" width="129" height="130">
<path d="M489.631 428.934L425.33 364.633L361.029 428.934L425.33 493.235L489.631 428.934Z" fill="#046792"/>
</mask>
<g mask="url(#mask4_93_2)">
<path d="M425.121 493.653V364.633H334.58V493.653H425.121Z" fill="#046792"/>
</g>
<mask id="mask5_93_2" style="mask-type:alpha" maskUnits="userSpaceOnUse" x="361" y="656" width="129" height="130">
<path d="M489.631 720.926L425.33 656.625L361.029 720.926L425.33 785.227L489.631 720.926Z" fill="#1FBBFE"/>
</mask>
<g mask="url(#mask5_93_2)">
<path d="M425.121 785.645V656.625H334.58V785.645H425.121Z" fill="#1FBBFE"/>
</g>
<mask id="mask6_93_2" style="mask-type:alpha" maskUnits="userSpaceOnUse" x="-1" y="585" width="130" height="129">
<path d="M-0.000181467 649.625L64.3008 713.926L128.602 649.625L64.3008 585.324L-0.000181467 649.625Z" fill="#046792"/>
</mask>
<g mask="url(#mask6_93_2)">
<path d="M64.5098 584.906L64.5098 713.926H155.05V584.906H64.5098Z" fill="#046792"/>
</g>
<path d="M279.334 72.6411L215.033 136.942L279.334 201.243L343.635 136.942L279.334 72.6411Z" fill="#1AA1DB"/>
<path d="M351.766 146.204L287.465 210.505L351.766 274.806L416.067 210.505L351.766 146.204Z" fill="#046792"/>
<path d="M353.612 292.2L289.311 356.501L353.612 420.802L417.913 356.501L353.612 292.2Z" fill="#1AA1DB"/>
<path d="M352.898 438.405L288.597 502.706L352.898 567.007L417.199 502.706L352.898 438.405Z" fill="#046792"/>
<path d="M208.033 146.204L143.732 210.505L208.033 274.806L272.334 210.505L208.033 146.204Z" fill="#1AA1DB"/>
<path d="M280.048 219.768L215.747 284.069L280.048 348.37L344.349 284.069L280.048 219.768Z" fill="#1FBBFE"/>
<path d="M206.902 292.409L142.601 356.71L206.902 421.011L271.203 356.71L206.902 292.409Z" fill="#046792"/>
<path d="M279.334 365.973L215.033 430.274L279.334 494.575L343.635 430.274L279.334 365.973Z" fill="#1AA1DB"/>
<path d="M352.898 585.324L288.597 649.625L352.898 713.926L417.199 649.625L352.898 585.324Z" fill="#046792"/>
<path d="M354.744 731.32L290.443 795.621L354.744 859.922L419.045 795.621L354.744 731.32Z" fill="#1AA1DB"/>
<path d="M281.18 658.888L216.879 723.189L281.18 787.49L345.481 723.189L281.18 658.888Z" fill="#1AA1DB"/>
<path d="M280.466 805.092L216.165 869.393L280.466 933.694L344.767 869.393L280.466 805.092Z" fill="#1AA1DB"/>
<path d="M208.033 438.196L143.732 502.497L208.033 566.798L272.334 502.497L208.033 438.196Z" fill="#046792"/>
<path d="M136.733 511.76L72.4321 576.061L136.733 640.362L201.034 576.061L136.733 511.76Z" fill="#1FBBFE"/>
<path d="M208.748 585.324L144.447 649.625L208.748 713.926L273.049 649.625L208.748 585.324Z" fill="#1AA1DB"/>
<path d="M135.601 657.965L71.3003 722.266L135.601 786.567L199.902 722.266L135.601 657.965Z" fill="#1AA1DB"/>
<path d="M208.033 731.528L143.732 795.829L208.033 860.13L272.334 795.829L208.033 731.528Z" fill="#046792"/>
<path d="M135.394 804.048L71.0928 868.349L135.394 932.65L199.695 868.349L135.394 804.048Z" fill="#1AA1DB"/>
<path d="M64.301 731.528L0 795.829L64.301 860.13L128.602 795.829L64.301 731.528Z" fill="#046792"/>
<path d="M279.334 511.76L215.033 576.061L279.334 640.362L343.635 576.061L279.334 511.76Z" fill="#1AA1DB"/>
</g>
<defs>
<clipPath id="clip0_93_2">
<rect width="465" height="1006" fill="white"/>
</clipPath>
</defs>
</svg>
