<svg width="46" height="45" viewBox="0 0 46 45" fill="none" xmlns="http://www.w3.org/2000/svg">
<rect x="1" width="45" height="45" rx="6" fill="black"/>
<path d="M7.75191 27.658C7.92525 27.7793 8.28925 27.9527 8.84391 28.178C9.41591 28.386 10.0832 28.49 10.8459 28.49C11.4526 28.49 11.9466 28.386 12.3279 28.178C12.7266 27.97 13.0212 27.658 13.2119 27.242C13.4199 26.8087 13.5586 26.254 13.6279 25.578C13.6972 24.8847 13.7319 24.0527 13.7319 23.082V13.54H17.9959V22.926C17.9959 24.3127 17.9179 25.578 17.7619 26.722C17.6059 27.866 17.2852 28.8627 16.7999 29.712C16.3319 30.544 15.6212 31.1853 14.6679 31.636C13.7146 32.0693 12.4406 32.286 10.8459 32.286C10.0312 32.286 9.29458 32.1907 8.63591 32C7.97725 31.8093 7.37058 31.5233 6.81591 31.142L7.75191 27.658ZM29.4136 32.13C28.0269 32.13 26.7702 31.87 25.6436 31.35C24.5342 30.83 23.5722 30.128 22.7576 29.244C21.9602 28.3427 21.3449 27.3373 20.9116 26.228C20.4782 25.1013 20.2616 23.94 20.2616 22.744C20.2616 21.5133 20.4869 20.3433 20.9376 19.234C21.4056 18.1073 22.0469 17.1107 22.8616 16.244C23.6936 15.3773 24.6729 14.6927 25.7996 14.19C26.9262 13.67 28.1569 13.41 29.4916 13.41C30.8609 13.41 32.1002 13.6787 33.2096 14.216C34.3362 14.7533 35.2982 15.4727 36.0956 16.374C36.9102 17.2753 37.5342 18.2893 37.9676 19.416C38.4009 20.5253 38.6176 21.6607 38.6176 22.822C38.6176 24.0527 38.3922 25.2227 37.9416 26.332C37.4909 27.4413 36.8496 28.438 36.0176 29.322C35.1856 30.1887 34.2062 30.8733 33.0796 31.376C31.9702 31.8787 30.7482 32.13 29.4136 32.13ZM29.4396 28.334C30.2542 28.334 30.9649 28.178 31.5716 27.866C32.1782 27.5367 32.6809 27.112 33.0796 26.592C33.4782 26.0547 33.7729 25.4567 33.9636 24.798C34.1716 24.122 34.2756 23.4373 34.2756 22.744C34.2756 22.0333 34.1716 21.3487 33.9636 20.69C33.7556 20.014 33.4436 19.416 33.0276 18.896C32.6116 18.376 32.1002 17.9687 31.4936 17.674C30.8869 17.362 30.2022 17.206 29.4396 17.206C28.6249 17.206 27.9142 17.3707 27.3076 17.7C26.7182 18.012 26.2156 18.4367 25.7996 18.974C25.4009 19.494 25.0976 20.092 24.8896 20.768C24.6989 21.4267 24.6036 22.1027 24.6036 22.796C24.6036 23.5067 24.7076 24.1913 24.9156 24.85C25.1236 25.5087 25.4269 26.1067 25.8256 26.644C26.2416 27.164 26.7529 27.58 27.3596 27.892C27.9662 28.1867 28.6596 28.334 29.4396 28.334ZM28.2956 24.72H32.2996L38.8776 32H34.8736L28.2956 24.72Z" fill="white"/>
<path d="M7.75191 27.658C7.92525 27.7793 8.28925 27.9527 8.84391 28.178C9.41591 28.386 10.0832 28.49 10.8459 28.49C11.4526 28.49 11.9466 28.386 12.3279 28.178C12.7266 27.97 13.0212 27.658 13.2119 27.242C13.4199 26.8087 13.5586 26.254 13.6279 25.578C13.6972 24.8847 13.7319 24.0527 13.7319 23.082V13.54H17.9959V22.926C17.9959 24.3127 17.9179 25.578 17.7619 26.722C17.6059 27.866 17.2852 28.8627 16.7999 29.712C16.3319 30.544 15.6212 31.1853 14.6679 31.636C13.7146 32.0693 12.4406 32.286 10.8459 32.286C10.0312 32.286 9.29458 32.1907 8.63591 32C7.97725 31.8093 7.37058 31.5233 6.81591 31.142L7.75191 27.658ZM29.4136 32.13C28.0269 32.13 26.7702 31.87 25.6436 31.35C24.5342 30.83 23.5722 30.128 22.7576 29.244C21.9602 28.3427 21.3449 27.3373 20.9116 26.228C20.4782 25.1013 20.2616 23.94 20.2616 22.744C20.2616 21.5133 20.4869 20.3433 20.9376 19.234C21.4056 18.1073 22.0469 17.1107 22.8616 16.244C23.6936 15.3773 24.6729 14.6927 25.7996 14.19C26.9262 13.67 28.1569 13.41 29.4916 13.41C30.8609 13.41 32.1002 13.6787 33.2096 14.216C34.3362 14.7533 35.2982 15.4727 36.0956 16.374C36.9102 17.2753 37.5342 18.2893 37.9676 19.416C38.4009 20.5253 38.6176 21.6607 38.6176 22.822C38.6176 24.0527 38.3922 25.2227 37.9416 26.332C37.4909 27.4413 36.8496 28.438 36.0176 29.322C35.1856 30.1887 34.2062 30.8733 33.0796 31.376C31.9702 31.8787 30.7482 32.13 29.4136 32.13ZM29.4396 28.334C30.2542 28.334 30.9649 28.178 31.5716 27.866C32.1782 27.5367 32.6809 27.112 33.0796 26.592C33.4782 26.0547 33.7729 25.4567 33.9636 24.798C34.1716 24.122 34.2756 23.4373 34.2756 22.744C34.2756 22.0333 34.1716 21.3487 33.9636 20.69C33.7556 20.014 33.4436 19.416 33.0276 18.896C32.6116 18.376 32.1002 17.9687 31.4936 17.674C30.8869 17.362 30.2022 17.206 29.4396 17.206C28.6249 17.206 27.9142 17.3707 27.3076 17.7C26.7182 18.012 26.2156 18.4367 25.7996 18.974C25.4009 19.494 25.0976 20.092 24.8896 20.768C24.6989 21.4267 24.6036 22.1027 24.6036 22.796C24.6036 23.5067 24.7076 24.1913 24.9156 24.85C25.1236 25.5087 25.4269 26.1067 25.8256 26.644C26.2416 27.164 26.7529 27.58 27.3596 27.892C27.9662 28.1867 28.6596 28.334 29.4396 28.334ZM28.2956 24.72H32.2996L38.8776 32H34.8736L28.2956 24.72Z" fill="#FF5277"/>
<path d="M7.75191 27.658C7.92525 27.7793 8.28925 27.9527 8.84391 28.178C9.41591 28.386 10.0832 28.49 10.8459 28.49C11.4526 28.49 11.9466 28.386 12.3279 28.178C12.7266 27.97 13.0212 27.658 13.2119 27.242C13.4199 26.8087 13.5586 26.254 13.6279 25.578C13.6972 24.8847 13.7319 24.0527 13.7319 23.082V13.54H17.9959V22.926C17.9959 24.3127 17.9179 25.578 17.7619 26.722C17.6059 27.866 17.2852 28.8627 16.7999 29.712C16.3319 30.544 15.6212 31.1853 14.6679 31.636C13.7146 32.0693 12.4406 32.286 10.8459 32.286C10.0312 32.286 9.29458 32.1907 8.63591 32C7.97725 31.8093 7.37058 31.5233 6.81591 31.142L7.75191 27.658ZM29.4136 32.13C28.0269 32.13 26.7702 31.87 25.6436 31.35C24.5342 30.83 23.5722 30.128 22.7576 29.244C21.9602 28.3427 21.3449 27.3373 20.9116 26.228C20.4782 25.1013 20.2616 23.94 20.2616 22.744C20.2616 21.5133 20.4869 20.3433 20.9376 19.234C21.4056 18.1073 22.0469 17.1107 22.8616 16.244C23.6936 15.3773 24.6729 14.6927 25.7996 14.19C26.9262 13.67 28.1569 13.41 29.4916 13.41C30.8609 13.41 32.1002 13.6787 33.2096 14.216C34.3362 14.7533 35.2982 15.4727 36.0956 16.374C36.9102 17.2753 37.5342 18.2893 37.9676 19.416C38.4009 20.5253 38.6176 21.6607 38.6176 22.822C38.6176 24.0527 38.3922 25.2227 37.9416 26.332C37.4909 27.4413 36.8496 28.438 36.0176 29.322C35.1856 30.1887 34.2062 30.8733 33.0796 31.376C31.9702 31.8787 30.7482 32.13 29.4136 32.13ZM29.4396 28.334C30.2542 28.334 30.9649 28.178 31.5716 27.866C32.1782 27.5367 32.6809 27.112 33.0796 26.592C33.4782 26.0547 33.7729 25.4567 33.9636 24.798C34.1716 24.122 34.2756 23.4373 34.2756 22.744C34.2756 22.0333 34.1716 21.3487 33.9636 20.69C33.7556 20.014 33.4436 19.416 33.0276 18.896C32.6116 18.376 32.1002 17.9687 31.4936 17.674C30.8869 17.362 30.2022 17.206 29.4396 17.206C28.6249 17.206 27.9142 17.3707 27.3076 17.7C26.7182 18.012 26.2156 18.4367 25.7996 18.974C25.4009 19.494 25.0976 20.092 24.8896 20.768C24.6989 21.4267 24.6036 22.1027 24.6036 22.796C24.6036 23.5067 24.7076 24.1913 24.9156 24.85C25.1236 25.5087 25.4269 26.1067 25.8256 26.644C26.2416 27.164 26.7529 27.58 27.3596 27.892C27.9662 28.1867 28.6596 28.334 29.4396 28.334ZM28.2956 24.72H32.2996L38.8776 32H34.8736L28.2956 24.72Z" fill="#1AA1DB"/>
</svg>
